<?xml version="1.0" encoding="UTF-8"?>
<svg id="_レイヤー_2" data-name="レイヤー 2" xmlns="http://www.w3.org/2000/svg" viewBox="0 0 176.76 171.12" fill="#8a8a8a">
  <g id="_レイヤー_1-2" data-name="レイヤー 1">
    <path d="M84.07,171.12c-2.72,0-5.4-.05-7.95-.14-33.89-1.25-56.78-8.15-68.05-20.51C2.14,143.96-.47,136.12.07,126.51c1.12-19.78,22.1-32.04,41.37-36.91,1.08-.27,1.92-1.12,2.18-2.2.77-3.17-1.2-4.33-2.12-4.69-.95-.7-1.93-1.24-2.88-1.76-.92-.5-1.79-.98-2.48-1.54-18.82-15.02-5.43-37.75,1.2-46.82C51.81,12.79,77.03,0,101.61,0c16.63,0,31.29,5.84,42.39,16.9,9.03,9,12.31,21.34,8.99,33.86-3.66,13.8-14.76,25.09-28.27,28.75-1.21.33-2.09,1.37-2.2,2.62-.1,1.08-.22,2.31.78,3.41.35.39,1.14,1.04,2.42,1.04.02,0,.09,0,.14,0,26.77,6.25,53.68,16.26,50.68,43.06-1.69,15.12-13.41,26.41-34.83,33.53-20.84,6.94-45.06,7.97-57.64,7.97ZM92.51,87.86c-2.16,0-4.24.05-6.17.14-21.29,1.03-53.47,2.58-72.14,21.37-8.71,8.76-9.53,17.34-8.68,22.99,1.33,8.92,7.81,17.09,17.77,22.43,12.94,6.94,36.2,11.08,62.22,11.08h0c33.09,0,60.8-6.45,74.12-17.26,11.87-9.63,15.15-24.36,7.99-35.81-5.51-8.81-16.88-15.5-33.78-19.9-17.48-4.55-34.73-5.04-41.33-5.04ZM99.76,4.49c-1.18,0-2.34.04-3.47.12-13.02.91-27.23,6.36-38.96,14.94-12.71,9.29-21.3,21.32-24.18,33.88-1.58,6.9-.44,13.27,3.3,18.41,4.94,6.8,14.16,11.25,25.27,12.23,3.39.3,7.1.45,11.02.45,33.04,0,72.76-10.22,75.96-39.04.99-8.92-1.77-17.3-7.97-24.23-10.36-11.58-28.04-16.76-40.97-16.76Z"/>
  </g>
</svg>