<?xml version="1.0" encoding="UTF-8"?>
<svg id="_レイヤー_2" data-name="レイヤー 2" xmlns="http://www.w3.org/2000/svg" viewBox="0 0 173.06 250.45" fill="#8a8a8a">
  <g id="_レイヤー_1-2" data-name="レイヤー 1">
    <g>
      <path d="M86.59,132.75c-17.2,0-38.16-8.44-45.39-32.11-8.8-28.82,9.24-55.73,28.46-80.82C79.23,7.34,85.4.86,87.14.06c.17-.04.28-.05.34-.06.06.03.18.09.38.21.77.45,3.13,2.68,9.97,10.7l.59.69c18.8,21.97,40.43,53.88,36.73,81.13-3.73,27.49-27.78,40.02-48.56,40.02ZM87.49,10.84c-2.37,0-4.54,1.98-10.09,9.19-.32.42-.59.77-.78,1.01-11.26,14.12-30.35,40.47-31.76,58.39-1.03,13.01,3.16,25.32,11.79,34.66,8.2,8.88,19.54,13.97,31.11,13.97h0c9.79,0,19.19-3.61,27.19-10.44,8.81-7.52,13.69-16.99,14.5-28.13,2.02-27.96-22.36-59.03-32.93-71.09-6.64-7.56-8.02-7.56-9.03-7.56h0Z"/>
      <path d="M125.66,182.27c-13.71,0-27.25-3.63-40.34-7.13-13.05-3.5-26.54-7.11-40.16-7.11-9.77,0-18.71,1.83-27.31,5.59-1.6.7-3.6,1.87-5.72,3.11-3.23,1.89-8.12,4.75-10.18,4.75-.04,0-.08,0-.12,0-.16-.05-.74-.39-.93-.58-1.03-1.03-.92-1.62-.88-1.85.25-1.36,2.25-4.37,12.88-9.16,10.85-4.9,21.34-7.18,32.99-7.18,1.84,0,3.74.06,5.64.18,12.92.79,24.67,4.27,36.04,7.63,12.54,3.71,24.39,7.21,37.28,7.21,12.1,0,23.6-3.22,35.16-9.83,1.18-.67,2.35-1.57,3.49-2.44,1.92-1.46,4.09-3.11,5.57-3.11.32,0,.77.07,1.4.65.88.8.83,1.25.82,1.4-.25,2.46-6.48,6.18-8.53,7.4l-.24.14c-11.64,6.95-23.7,10.34-36.86,10.34Z"/>
      <path d="M126.24,250.45c-13.92,0-27.59-3.7-40.81-7.29-13.04-3.54-26.53-7.19-40.09-7.19-9.55,0-18.28,1.78-26.68,5.44-1.54.67-3.22,1.7-5.01,2.79-3.03,1.85-6.81,4.16-9.36,4.16-.76,0-1.29-.2-1.79-.67-.76-.71-.7-1.09-.67-1.26.21-1.31,2.96-4.63,11.91-8.77,8.59-3.97,18.03-6.4,27.3-7.01,1.6-.11,3.25-.16,4.88-.16,13.97,0,27.08,3.91,39.75,7.69,12.58,3.75,25.59,7.63,39.32,7.63,9.54,0,18.56-1.84,27.55-5.62,2.05-.86,4.98-2.64,8.08-4.53,2.84-1.73,7.14-4.33,8.35-4.57.22-.03.46-.05.71-.05,1.55,0,2.66.66,2.91,1.11.13.22-.05.62-.22.91-3.03,5.19-20.92,13.33-28.76,15.29-5.61,1.4-11.29,2.09-17.37,2.09Z"/>
      <path d="M125.28,216.57c-5.45,0-11.15-.49-16.95-1.46-9.47-1.58-18.03-4.03-26.3-6.39-12.06-3.45-23.46-6.7-35.78-6.7-11.1,0-21.92,2.72-33.07,8.32-1.18.59-2.27,1.32-3.33,2.02-1.71,1.13-3.48,2.3-4.83,2.3-.42,0-1.08-.09-2.06-.9-.46-.38-1.21-1.1-1.14-1.68.12-.92,1.51-3.56,11.72-8.14l.17-.07c5.83-2.62,14.65-5.68,21.9-6.42,2.65-.27,6.21-.42,10.03-.42,2.95,0,5.91.09,8.33.25,12.32.83,23.68,4.23,34.66,7.52,12.57,3.77,24.44,7.33,37.54,7.33,10.51,0,20.53-2.37,30.63-7.23,1.34-.65,2.85-1.61,4.46-2.64,3.14-2.01,7.06-4.51,9.72-4.51.55,0,.98.11,1.36.35.53.34.7.59.72.65,0,.02-.1,2.56-9.06,7.79-11.36,6.64-24.39,10.01-38.72,10.01Z"/>
    </g>
  </g>
</svg>