<?xml version="1.0" encoding="UTF-8"?>
<svg id="_レイヤー_2" data-name="レイヤー 2" xmlns="http://www.w3.org/2000/svg" viewBox="0 0 169.77 250.24" fill="#8a8a8a">
  <g id="_レイヤー_1-2" data-name="レイヤー 1">
    <path d="M43.13,250.24c-.25,0-.41-.02-.49-.03-.46-.4-1.15-1.92-1.15-2.75,0-2.35,1.03-3.05,6.12-4.17.61-.13,1.22-.27,1.81-.41,4.97-1.22,10.2-2.06,15.25-2.88,4.51-.72,9.17-1.47,13.71-2.5.17-.04.33-.07.5-.1,1.11-.2,2.96-.55,4.26-2.28.68-.9.79-2.1.3-3.11-8.35-17.23-11.79-36.38-13.21-49.42-1.7-15.6-.63-27.37.61-40.99.43-4.76.88-9.68,1.23-15.02,1.56-23.69-6.25-56.95-23.77-71.92-8.49-7.25-25.21-13.37-36.52-13.37-.29,0-.57,0-.85.01-1.66.05-2.97.58-3.89,1.57-1.43,1.56-1.32,3.52-1.23,5.1l.03.53c1.18,25.76,18.64,47.37,43.45,53.75.89.23,2.06.39,3.4.59,1.53.22,4.95.7,6.17,1.31.2,1.38.09,2.43-.31,2.91-.42.51-1.51.8-3.06.8-2.8,0-6.41-.93-9.06-1.61l-.43-.11C16.09,98.48-3.99,67.49.67,36.64c.82-.2,2.5-.45,5.74-.45,6.5,0,15.09,1.03,17.88,1.58,21.72,4.3,36.87,18.3,45.03,41.6l5.49,19.28c.37,1.3,1.56,2.18,2.88,2.18.14,0,.27,0,.41-.03,1.48-.2,2.58-1.46,2.59-2.96,0-1.81.83-3.87,1.7-6.04.8-2,1.63-4.08,1.91-6.23.52-3.97.34-8.39.16-12.66-.14-3.41-.28-6.64-.08-9.6,1.41-20.92,9.61-37.03,24.38-47.89C121.94,5.73,140.44.4,162.25,0h0c.34,0,.64.03.9.09.86,3.64.92,17.06.64,21.67-1.52,25.64-13.17,45.16-34.61,58.02-5.43,3.26-16.16,8.43-21.81,8.43-.43,0-.81-.03-1.14-.09-.34-.06-.71-.69-.87-1.46-.25-1.24.09-2.34.46-2.59.89-.6,3.99-1.55,6.26-2.25,2.45-.75,4.76-1.47,6.42-2.23,10.7-4.92,22.15-14.08,28.5-22.79,9.17-12.58,13.12-29.77,11.11-48.38-.17-1.53-1.46-2.68-2.98-2.68-.05,0-.1,0-.15,0-29.4,1.49-51.23,14.57-59.89,35.86-3.28,8.07-4.31,16.3-5.01,23.37-.13,1.28.57,2.49,1.74,3.02.4.18.83.27,1.25.27.81,0,1.6-.32,2.18-.93l17.87-18.81c1.49-1.01,3.04-2.46,4.66-3.99,2.76-2.6,6.2-5.83,8.56-5.83.07,0,.14,0,.21,0,.11.1.23.29.29.44-.99,1.97-7.16,7.66-10.17,10.44-2.11,1.94-3.92,3.62-4.94,4.73-33.06,36.11-38.71,81.75-37.63,113.68.02.6.22,1.18.58,1.67.56.77,1.55,1.27,2.51,1.27,1.64,0,2.96-1.31,3.45-2.19.97-1.73,1.84-4.9,2.76-8.25.52-1.89,1.01-3.67,1.42-4.81,8.93-24.67,28.63-51.02,57.15-51.02,3.83,0,7.79.48,11.76,1.42,4.26,1.01,14.4,5.17,16.05,7.03.11.84-.42,4.1-4.06,10.98-9.64,18.23-27.58,28.27-50.52,28.28-6.57,0-13.37-.83-20.23-2.47-.23-.06-.47-.08-.7-.08-1.16,0-2.25.68-2.74,1.78-15.79,35.52-8.48,67,2.57,83.15.5.73,1.29,1.2,2.17,1.29,4.46.46,8.98.75,13.35,1.03,5.63.36,11.44.74,17.08,1.47,6.68.87,19.11,2.7,27.33,5.24,3.75,1.16,4.96,2.8,4.93,3.37-.02.49-1.06,1.68-4.07,2.44-20.63-5.56-39.36-8.27-57.22-8.27-12.85,0-25.43,1.45-37.39,4.32-1.31.31-3.11.9-5.2,1.58-3.91,1.27-9.27,3.02-11.95,3.02ZM140.75,109.52c-1.54,0-3.07.08-4.54.25-20.82,2.36-34.19,21.68-38.97,29.87-.27.46-.41.99-.41,1.52,0,3.25,4,4.03,7.53,4.73,2.64.52,5.63.94,6.62,1.01,1.5.11,3.03.17,4.54.17,17.95,0,33.64-7.37,41.97-19.72,5.41-8.01,4.25-10.2,3.7-11.25-.21-.4-.52-.75-.89-1.02-4.85-3.53-11.98-5.56-19.55-5.56Z"/>
  </g>
</svg>